<svg preserveAspectRatio="none" overflow="visible" style="display: block;" width="22" height="22" viewBox="0 0 22 22" fill="none" xmlns="http://www.w3.org/2000/svg">
<g id="Component 3">
<path id="Vector" d="M19.25 15.4043H2.75C2.59245 15.4043 2.45996 15.458 2.35254 15.5654C2.24512 15.6729 2.19141 15.7982 2.19141 15.9414C2.19141 16.099 2.24512 16.2314 2.35254 16.3389C2.45996 16.4463 2.59245 16.5 2.75 16.5H19.25C19.4076 16.5 19.54 16.4463 19.6475 16.3389C19.7549 16.2314 19.8086 16.099 19.8086 15.9414C19.8086 15.7982 19.7549 15.6729 19.6475 15.5654C19.54 15.458 19.4076 15.4043 19.25 15.4043ZM19.25 9.9043H2.75C2.59245 9.9043 2.45996 9.95801 2.35254 10.0654C2.24512 10.1729 2.19141 10.2982 2.19141 10.4414C2.19141 10.599 2.24512 10.7314 2.35254 10.8389C2.45996 10.9463 2.59245 11 2.75 11H19.25C19.4076 11 19.54 10.9463 19.6475 10.8389C19.7549 10.7314 19.8086 10.599 19.8086 10.4414C19.8086 10.2982 19.7549 10.1729 19.6475 10.0654C19.54 9.95801 19.4076 9.9043 19.25 9.9043ZM19.25 4.4043H2.75C2.59245 4.4043 2.45996 4.45801 2.35254 4.56543C2.24512 4.67285 2.19141 4.79818 2.19141 4.94141C2.19141 5.09896 2.24512 5.23145 2.35254 5.33887C2.45996 5.44629 2.59245 5.5 2.75 5.5H19.25C19.4076 5.5 19.54 5.44629 19.6475 5.33887C19.7549 5.23145 19.8086 5.09896 19.8086 4.94141C19.8086 4.79818 19.7549 4.67285 19.6475 4.56543C19.54 4.45801 19.4076 4.4043 19.25 4.4043Z" fill="white"/>
</g>
</svg>
